<?xml version="1.0" encoding="utf-8"?>
<!-- Generator: Adobe Illustrator 15.0.0, SVG Export Plug-In . SVG Version: 6.00 Build 0)  -->
<!DOCTYPE svg PUBLIC "-//W3C//DTD SVG 1.1//EN" "http://www.w3.org/Graphics/SVG/1.1/DTD/svg11.dtd">
<svg version="1.1" id="图层_1" xmlns:ev="http://www.w3.org/2001/xml-events"
	 xmlns="http://www.w3.org/2000/svg" xmlns:xlink="http://www.w3.org/1999/xlink" x="0px" y="0px" width="60px" height="60px"
	 viewBox="0 0 60 60" enable-background="new 0 0 60 60" xml:space="preserve">
<path opacity="0.502" enable-background="new    " d="M30.165,1c16.015,0,29,12.983,29,29c0,16.016-12.984,29-29,29
	c-16.016,0-29-12.984-29-29C1.165,13.983,14.148,1,30.165,1z"/>
<path fill="#FFFFFF" d="M30.165,60c-16.569,0-30-13.431-30-30s13.431-30,30-30c16.57,0,30,13.431,30,30S46.734,60,30.165,60z
	 M30.165,3c-14.912,0-27,12.088-27,27s12.088,27,27,27c14.912,0,27-12.088,27-27S45.076,3,30.165,3z"/>
<path fill-rule="evenodd" clip-rule="evenodd" fill="#FFFFFF" d="M40.759,42.956v-2.493h-0.032c0.012-0.206,0.032-0.412,0.032-0.622
	V29.246v-3.115c0-5.852-4.744-10.594-10.595-10.594c-5.851,0-10.592,4.742-10.592,10.594v3.115v10.595
	c0,0.21,0.018,0.416,0.029,0.622h-0.029v2.493c0,0-6.234-0.104-6.234-6.854c0-3.83,2.003-5.517,3.739-6.263v-3.708
	c0-7.228,5.859-13.087,13.087-13.087s13.087,5.859,13.087,13.087v3.708c1.735,0.746,3.74,2.433,3.74,6.263
	C46.991,42.852,40.759,42.956,40.759,42.956 M22.063,42.956h-1.248v-13.71h1.248V42.956z M39.512,42.956h-1.244v-13.71h1.244V42.956
	z"/>
</svg>
